<?xml version="1.0" standalone="no"?>
<!DOCTYPE svg PUBLIC "-//W3C//DTD SVG 20010904//EN"
 "http://www.w3.org/TR/2001/REC-SVG-20010904/DTD/svg10.dtd">
<svg version="1.0" xmlns="http://www.w3.org/2000/svg"
 width="343.000000pt" height="266.000000pt" viewBox="0 0 343.000000 266.000000"
 preserveAspectRatio="xMidYMid meet">

<g transform="translate(0.000000,266.000000) scale(0.100000,-0.100000)"
fill="#000000" stroke="none">
<path d="M1300 1740 l0 -510 78 0 c54 0 84 5 100 16 l22 15 0 479 c0 422 -2
480 -16 494 -12 12 -36 16 -100 16 l-84 0 0 -510z"/>
<path d="M1617 2243 c-4 -3 -7 -146 -7 -316 0 -304 4 -348 37 -437 3 -8 14 17
24 55 16 61 19 111 19 388 l0 317 -33 0 c-19 0 -37 -3 -40 -7z"/>
<path d="M2032 2238 c-15 -15 -16 -148 -2 -148 6 0 10 -15 10 -33 0 -27 -5
-35 -29 -44 -57 -21 -82 -104 -47 -158 15 -23 13 -31 -65 -211 -83 -191 -128
-339 -109 -358 12 -12 6 -19 69 81 41 64 53 93 56 130 2 35 9 53 27 68 12 11
43 65 67 120 24 55 46 103 50 107 4 4 38 -64 75 -152 38 -88 70 -160 71 -160
8 0 75 31 75 35 0 2 -29 71 -65 154 -36 82 -65 154 -65 160 0 7 7 23 16 37 32
47 4 118 -58 150 -31 16 -39 60 -13 70 18 7 21 114 5 145 -12 21 -50 25 -68 7z"/>
<path d="M2257 1438 c-32 -11 -31 -21 10 -101 27 -54 42 -64 72 -47 27 14 26
36 -5 104 -27 58 -31 61 -77 44z"/>
<path d="M470 755 l0 -145 38 0 c21 0 43 5 50 12 15 15 16 231 2 259 -8 14
-21 19 -50 19 l-40 0 0 -145z m68 15 c3 -108 -2 -140 -23 -140 -12 0 -15 21
-15 121 0 109 2 120 18 117 14 -3 17 -17 20 -98z"/>
<path d="M680 756 c0 -124 2 -146 15 -146 13 0 15 20 13 142 -2 102 -6 143
-15 146 -10 3 -13 -30 -13 -142z"/>
<path d="M827 893 c-4 -3 -7 -66 -7 -139 0 -122 2 -134 19 -144 13 -7 28 -7
45 0 25 9 26 14 26 80 0 68 -1 70 -25 70 -22 0 -24 -3 -15 -19 16 -31 13 -111
-5 -111 -12 0 -15 20 -15 120 0 100 3 120 15 120 9 0 15 -9 15 -25 0 -18 4
-23 15 -19 18 7 20 45 3 62 -13 13 -60 16 -71 5z"/>
<path d="M1020 755 c0 -122 2 -145 15 -145 13 0 15 23 15 145 0 122 -2 145
-15 145 -13 0 -15 -23 -15 -145z"/>
<path d="M1090 885 c0 -8 9 -15 20 -15 19 0 20 -7 20 -130 0 -123 1 -130 20
-130 19 0 20 7 20 129 0 125 1 130 22 133 12 2 23 9 26 16 3 9 -14 12 -62 12
-52 0 -66 -3 -66 -15z"/>
<path d="M1350 893 c0 -5 -9 -62 -20 -128 -24 -144 -24 -155 -6 -155 10 0 17
15 21 43 3 23 9 67 13 97 l8 55 12 -78 c7 -43 12 -87 12 -97 0 -14 7 -20 21
-20 15 0 19 5 15 18 -3 9 -12 67 -21 127 -9 61 -19 118 -21 128 -5 16 -34 25
-34 10z"/>
<path d="M1550 756 l0 -146 45 0 c33 0 45 4 45 15 0 10 -10 15 -30 15 l-29 0
-3 127 c-2 90 -7 128 -15 131 -10 3 -13 -30 -13 -142z"/>
<path d="M1870 755 c0 -122 2 -145 15 -145 12 0 15 14 15 65 0 56 3 65 18 65
31 0 42 22 42 80 0 65 -11 80 -57 80 l-33 0 0 -145z m60 65 c0 -38 -4 -50 -15
-50 -11 0 -15 12 -15 50 0 38 4 50 15 50 11 0 15 -12 15 -50z"/>
<path d="M2060 755 c0 -122 2 -145 15 -145 12 0 15 13 15 60 0 47 3 60 15 60
12 0 15 -13 15 -60 0 -47 3 -60 15 -60 13 0 15 22 15 139 0 152 0 151 -61 151
l-29 0 0 -145z m60 60 c0 -42 -3 -55 -15 -55 -12 0 -15 13 -15 55 0 42 3 55
15 55 12 0 15 -13 15 -55z"/>
<path d="M2272 888 c-13 -13 -17 -245 -4 -264 12 -18 41 -24 67 -14 25 9 25
10 25 144 0 113 -2 135 -16 140 -25 10 -59 7 -72 -6z m58 -139 c0 -109 -2
-120 -17 -117 -16 3 -18 17 -21 107 -3 115 0 131 23 131 13 0 15 -19 15 -121z"/>
<path d="M2520 765 c0 -113 -2 -135 -15 -135 -9 0 -15 9 -15 21 0 12 -5 19
-12 17 -7 -3 -13 -15 -13 -28 0 -27 30 -41 63 -29 21 8 22 12 22 149 0 118 -2
140 -15 140 -13 0 -15 -22 -15 -135z"/>
<path d="M2620 754 l0 -145 45 3 c53 4 65 22 18 26 -32 3 -33 4 -33 53 0 45 3
51 28 61 l27 12 -27 4 c-26 3 -28 6 -28 52 0 45 2 49 27 52 48 6 39 28 -11 28
l-46 0 0 -146z"/>
<path d="M2832 888 c-8 -8 -12 -54 -12 -140 0 -116 2 -128 19 -138 13 -7 28
-7 45 0 23 8 26 15 26 54 0 36 -3 44 -15 40 -9 -4 -15 -19 -15 -40 0 -24 -5
-34 -15 -34 -12 0 -15 20 -15 120 0 100 3 120 15 120 11 0 15 -11 15 -36 0
-24 4 -34 13 -32 16 6 21 66 6 84 -14 17 -51 18 -67 2z"/>
<path d="M2957 893 c-14 -13 -6 -23 18 -23 l25 0 0 -130 c0 -109 2 -130 15
-130 13 0 15 21 15 130 l0 130 24 0 c13 0 26 7 30 15 4 12 -6 15 -58 15 -34 0
-66 -3 -69 -7z"/>
</g>
</svg>
